<svg width="149" height="69" viewBox="0 0 149 69" fill="none" xmlns="http://www.w3.org/2000/svg">
<circle cx="12.5" cy="56.5" r="12.5" fill="black"/>
<circle cx="43.5" cy="56.5" r="12.5" fill="black"/>
<circle cx="74.5" cy="56.5" r="12.5" fill="black"/>
<circle cx="105.5" cy="56.5" r="12.5" fill="black" fill-opacity="0.933333"/>
<circle cx="136.5" cy="56.5" r="12.5" fill="black"/>
<path d="M29.1667 0H5.83333C2.61167 0 0 2.61167 0 5.83333V29.1667C0 32.3883 2.61167 35 5.83333 35H29.1667C32.3883 35 35 32.3883 35 29.1667V5.83333C35 2.61167 32.3883 0 29.1667 0Z" fill="black"/>
<path fill-rule="evenodd" clip-rule="evenodd" d="M23.3232 23.3245C23.3232 23.2826 23.488 22.6061 22.9938 23.0045C22.8416 23.1314 22.5646 23.3434 22.5271 23.3725C21.9619 23.8153 15.9786 28.4984 15.4308 28.8587C15.2336 28.9856 15.2161 28.9478 8.87345 28.9541C6.14072 28.9541 5.96861 29.1011 6.00355 28.8689C6.01228 28.7979 9.20035 26.415 11.7796 24.4053C12.1128 24.1515 24.354 14.7207 24.4738 14.6357C24.8666 14.3071 25.3414 14.096 25.8453 14.0258C26.3493 13.9556 26.8625 14.0292 27.3277 14.2383C27.7929 14.4474 28.1919 14.7839 28.48 15.21C28.7682 15.6362 28.9343 16.1354 28.9597 16.652C29.0408 19.4966 28.9759 25.3024 28.9672 26.0535C28.9632 26.5602 28.8295 27.0572 28.5793 27.4954C28.3292 27.9337 27.9711 28.2979 27.5404 28.5527C27.1096 28.8074 26.621 28.944 26.1227 28.9485C25.6244 28.953 25.1335 28.8253 24.6983 28.5784C23.0562 27.5342 23.3232 26.0816 23.3232 23.3245Z" fill="#FEFEFE"/>
<path fill-rule="evenodd" clip-rule="evenodd" d="M7.60843 21.7698C7.14409 21.5449 6.74786 21.1865 6.46421 20.735C6.18056 20.2835 6.0207 19.7567 6.00267 19.2137C5.99667 18.9811 6.00267 10.3953 6.00267 9.8381C6.0185 9.33771 6.15547 8.85012 6.40019 8.42261C6.64491 7.9951 6.98911 7.64202 7.39952 7.39777C7.80994 7.15353 8.27262 7.02641 8.74276 7.0285C9.21291 7.03058 9.67458 7.16191 10.0831 7.40979C11.8724 8.54341 11.3276 10.4771 11.3972 12.8747C11.4044 13.1303 11.5268 13.0319 11.7129 12.8747C12.6729 12.0861 13.6162 11.341 13.7818 11.2043C18.4623 7.47624 18.4322 7.44164 18.8403 7.11446C19.0203 6.97259 19.0503 7.04033 26.5545 7.01477C27.6947 7.01477 28.3115 6.92032 27.8411 7.20916C27.5915 7.36124 27.6011 7.37657 23.3335 10.8375C22.569 11.4574 13.9234 18.4662 13.7794 18.5786C10.6759 21.012 9.71222 22.621 7.60843 21.7698Z" fill="#FEFEFE"/>
<path d="M43.16 18.46L42.84 15.02L49.4 8H52.94L43.16 18.46ZM41.52 22V8H44.22V22H41.52ZM49.78 22L44.2 14.88L46.18 13.24L53.16 22H49.78ZM54.4603 22V8H57.1003V22H54.4603ZM61.3822 26.24C61.0222 26.24 60.6222 26.1667 60.1822 26.02C59.7555 25.8867 59.3755 25.7267 59.0422 25.54L60.0222 23.4C60.2489 23.52 60.4555 23.6133 60.6422 23.68C60.8422 23.76 61.0155 23.8 61.1622 23.8C61.4422 23.8 61.6889 23.72 61.9022 23.56C62.1155 23.4133 62.2889 23.1933 62.4222 22.9L63.6022 20.12L66.7822 12H69.6822L65.1422 22.86C64.8622 23.5267 64.5689 24.1133 64.2622 24.62C63.9555 25.14 63.5755 25.54 63.1222 25.82C62.6822 26.1 62.1022 26.24 61.3822 26.24ZM62.9022 22L58.3222 12H61.2222L64.5622 20.12L65.4222 22H62.9022ZM70.9056 22V12H73.3856L73.5456 13.84V22H70.9056ZM77.5256 22V16.88H80.1656V22H77.5256ZM77.5256 16.88C77.5256 16.2 77.4456 15.6733 77.2856 15.3C77.139 14.9267 76.9256 14.66 76.6456 14.5C76.3656 14.3267 76.039 14.24 75.6656 14.24C74.9856 14.2267 74.459 14.4333 74.0856 14.86C73.7256 15.2867 73.5456 15.92 73.5456 16.76H72.6656C72.6656 15.6933 72.819 14.7933 73.1256 14.06C73.4456 13.3133 73.8856 12.7467 74.4456 12.36C75.019 11.96 75.6856 11.76 76.4456 11.76C77.2323 11.76 77.9056 11.92 78.4656 12.24C79.0256 12.56 79.4523 13.06 79.7456 13.74C80.039 14.4067 80.179 15.2733 80.1656 16.34V16.88H77.5256Z" fill="black"/>
<path d="M40.623 33V28.1H43.57V28.73H41.309V30.186H43.346V30.802H41.309V32.37H43.584V33H40.623ZM44.5977 33V28.1H45.2627V33H44.5977ZM47.9277 34.4V29.5H48.5507L48.5927 30.144V34.4H47.9277ZM49.7407 33.084C49.4467 33.084 49.19 33.007 48.9707 32.853C48.756 32.699 48.5903 32.4843 48.4737 32.209C48.357 31.9337 48.2987 31.614 48.2987 31.25C48.2987 30.8813 48.357 30.5617 48.4737 30.291C48.5903 30.0157 48.756 29.801 48.9707 29.647C49.19 29.493 49.4467 29.416 49.7407 29.416C50.0533 29.416 50.3287 29.493 50.5667 29.647C50.8047 29.801 50.989 30.0157 51.1197 30.291C51.255 30.5617 51.3227 30.8813 51.3227 31.25C51.3227 31.614 51.255 31.9337 51.1197 32.209C50.989 32.4843 50.8047 32.699 50.5667 32.853C50.3287 33.007 50.0533 33.084 49.7407 33.084ZM49.5797 32.482C49.7897 32.482 49.974 32.4307 50.1327 32.328C50.2913 32.2207 50.415 32.076 50.5037 31.894C50.597 31.7073 50.6437 31.4927 50.6437 31.25C50.6437 31.0073 50.5993 30.795 50.5107 30.613C50.422 30.4263 50.2983 30.2817 50.1397 30.179C49.981 30.0717 49.7967 30.018 49.5867 30.018C49.3953 30.018 49.2227 30.0717 49.0687 30.179C48.9193 30.2817 48.8027 30.4263 48.7187 30.613C48.6347 30.7997 48.5927 31.012 48.5927 31.25C48.5927 31.4927 48.6347 31.7073 48.7187 31.894C48.8027 32.076 48.9193 32.2207 49.0687 32.328C49.218 32.4307 49.3883 32.482 49.5797 32.482ZM52.4549 31.117C52.4549 30.739 52.5272 30.431 52.6719 30.193C52.8166 29.955 53.0032 29.7777 53.2319 29.661C53.4606 29.5443 53.7009 29.486 53.9529 29.486V30.116C53.7429 30.116 53.5422 30.1487 53.3509 30.214C53.1642 30.2747 53.0102 30.3773 52.8889 30.522C52.7722 30.662 52.7139 30.8533 52.7139 31.096L52.4549 31.117ZM52.0489 33V29.5H52.7139V33H52.0489ZM56.0713 33.084C55.7213 33.084 55.4133 33.007 55.1473 32.853C54.8813 32.6943 54.6713 32.4773 54.5173 32.202C54.368 31.9267 54.2933 31.6093 54.2933 31.25C54.2933 30.8907 54.368 30.5733 54.5173 30.298C54.6667 30.0227 54.8743 29.808 55.1403 29.654C55.4063 29.4953 55.712 29.416 56.0573 29.416C56.4027 29.416 56.7083 29.4953 56.9743 29.654C57.2403 29.808 57.448 30.0227 57.5973 30.298C57.7467 30.5733 57.8213 30.8907 57.8213 31.25C57.8213 31.6093 57.7467 31.9267 57.5973 32.202C57.448 32.4773 57.2403 32.6943 56.9743 32.853C56.713 33.007 56.412 33.084 56.0713 33.084ZM56.0713 32.475C56.2813 32.475 56.468 32.4237 56.6313 32.321C56.7947 32.2137 56.9207 32.069 57.0093 31.887C57.1027 31.705 57.1493 31.4927 57.1493 31.25C57.1493 31.0073 57.1027 30.795 57.0093 30.613C56.9207 30.431 56.7923 30.2887 56.6243 30.186C56.4563 30.0787 56.2673 30.025 56.0573 30.025C55.8427 30.025 55.6537 30.0787 55.4903 30.186C55.327 30.2887 55.1987 30.431 55.1053 30.613C55.012 30.795 54.9653 31.0073 54.9653 31.25C54.9653 31.4927 55.012 31.705 55.1053 31.887C55.1987 32.069 55.3293 32.2137 55.4973 32.321C55.6653 32.4237 55.8567 32.475 56.0713 32.475ZM55.5393 29.024L56.3583 28.1H57.1633L56.2603 29.024H55.5393ZM58.0964 33L59.5314 30.991L60.5324 29.5H61.3164L59.9654 31.411L58.8944 33H58.0964ZM60.6094 33L59.5524 31.411L58.1874 29.5H58.9714L59.9794 30.991L61.4004 33H60.6094ZM61.9757 33V29.5H62.6407V33H61.9757ZM62.3117 28.758C62.2043 28.758 62.111 28.7183 62.0317 28.639C61.9523 28.555 61.9127 28.4593 61.9127 28.352C61.9127 28.24 61.9523 28.1467 62.0317 28.072C62.111 27.9927 62.2043 27.953 62.3117 27.953C62.4237 27.953 62.517 27.9927 62.5917 28.072C62.671 28.1467 62.7107 28.24 62.7107 28.352C62.7107 28.4593 62.671 28.555 62.5917 28.639C62.517 28.7183 62.4237 28.758 62.3117 28.758ZM63.6153 33V29.5H64.2383L64.2663 29.983C64.3783 29.7963 64.5183 29.6563 64.6863 29.563C64.8543 29.465 65.048 29.416 65.2673 29.416C65.5473 29.416 65.7853 29.4813 65.9813 29.612C66.1773 29.738 66.3197 29.9317 66.4083 30.193C66.511 29.941 66.6557 29.7497 66.8423 29.619C67.029 29.4837 67.2507 29.416 67.5073 29.416C67.904 29.416 68.2143 29.5467 68.4383 29.808C68.6623 30.0647 68.772 30.4613 68.7673 30.998V33H68.1093V31.208C68.1093 30.8907 68.0743 30.6503 68.0043 30.487C67.939 30.319 67.8503 30.2023 67.7383 30.137C67.6263 30.0717 67.4957 30.0367 67.3463 30.032C67.085 30.032 66.882 30.1323 66.7373 30.333C66.5973 30.5337 66.5273 30.816 66.5273 31.18V33H65.8623V31.208C65.8623 30.8907 65.8297 30.6503 65.7643 30.487C65.699 30.319 65.608 30.2023 65.4913 30.137C65.3793 30.0717 65.2487 30.0367 65.0993 30.032C64.838 30.032 64.635 30.1323 64.4903 30.333C64.3503 30.5337 64.2803 30.816 64.2803 31.18V33H63.6153ZM71.1993 33.084C70.8493 33.084 70.5413 33.007 70.2753 32.853C70.0093 32.6943 69.7993 32.4773 69.6453 32.202C69.4959 31.9267 69.4213 31.6093 69.4213 31.25C69.4213 30.8907 69.4959 30.5733 69.6453 30.298C69.7946 30.0227 70.0023 29.808 70.2683 29.654C70.5343 29.4953 70.8399 29.416 71.1853 29.416C71.5306 29.416 71.8363 29.4953 72.1023 29.654C72.3683 29.808 72.5759 30.0227 72.7253 30.298C72.8746 30.5733 72.9493 30.8907 72.9493 31.25C72.9493 31.6093 72.8746 31.9267 72.7253 32.202C72.5759 32.4773 72.3683 32.6943 72.1023 32.853C71.8409 33.007 71.5399 33.084 71.1993 33.084ZM71.1993 32.475C71.4093 32.475 71.5959 32.4237 71.7593 32.321C71.9226 32.2137 72.0486 32.069 72.1373 31.887C72.2306 31.705 72.2773 31.4927 72.2773 31.25C72.2773 31.0073 72.2306 30.795 72.1373 30.613C72.0486 30.431 71.9203 30.2887 71.7523 30.186C71.5843 30.0787 71.3953 30.025 71.1853 30.025C70.9706 30.025 70.7816 30.0787 70.6183 30.186C70.4549 30.2887 70.3266 30.431 70.2333 30.613C70.1399 30.795 70.0933 31.0073 70.0933 31.25C70.0933 31.4927 70.1399 31.705 70.2333 31.887C70.3266 32.069 70.4573 32.2137 70.6253 32.321C70.7933 32.4237 70.9846 32.475 71.1993 32.475ZM75.3868 33V29.5H76.0098L76.0378 29.983C76.1498 29.7963 76.2898 29.6563 76.4578 29.563C76.6258 29.465 76.8195 29.416 77.0388 29.416C77.3188 29.416 77.5568 29.4813 77.7528 29.612C77.9488 29.738 78.0911 29.9317 78.1798 30.193C78.2825 29.941 78.4271 29.7497 78.6138 29.619C78.8005 29.4837 79.0221 29.416 79.2788 29.416C79.6755 29.416 79.9858 29.5467 80.2098 29.808C80.4338 30.0647 80.5435 30.4613 80.5388 30.998V33H79.8808V31.208C79.8808 30.8907 79.8458 30.6503 79.7758 30.487C79.7105 30.319 79.6218 30.2023 79.5098 30.137C79.3978 30.0717 79.2671 30.0367 79.1178 30.032C78.8565 30.032 78.6535 30.1323 78.5088 30.333C78.3688 30.5337 78.2988 30.816 78.2988 31.18V33H77.6338V31.208C77.6338 30.8907 77.6011 30.6503 77.5358 30.487C77.4705 30.319 77.3795 30.2023 77.2628 30.137C77.1508 30.0717 77.0201 30.0367 76.8708 30.032C76.6095 30.032 76.4065 30.1323 76.2618 30.333C76.1218 30.5337 76.0518 30.816 76.0518 31.18V33H75.3868ZM82.9708 33.084C82.6208 33.084 82.3128 33.007 82.0468 32.853C81.7808 32.6943 81.5708 32.4773 81.4168 32.202C81.2674 31.9267 81.1928 31.6093 81.1928 31.25C81.1928 30.8907 81.2674 30.5733 81.4168 30.298C81.5661 30.0227 81.7738 29.808 82.0398 29.654C82.3058 29.4953 82.6114 29.416 82.9568 29.416C83.3021 29.416 83.6078 29.4953 83.8738 29.654C84.1398 29.808 84.3474 30.0227 84.4968 30.298C84.6461 30.5733 84.7208 30.8907 84.7208 31.25C84.7208 31.6093 84.6461 31.9267 84.4968 32.202C84.3474 32.4773 84.1398 32.6943 83.8738 32.853C83.6124 33.007 83.3114 33.084 82.9708 33.084ZM82.9708 32.475C83.1808 32.475 83.3674 32.4237 83.5308 32.321C83.6941 32.2137 83.8201 32.069 83.9088 31.887C84.0021 31.705 84.0488 31.4927 84.0488 31.25C84.0488 31.0073 84.0021 30.795 83.9088 30.613C83.8201 30.431 83.6918 30.2887 83.5238 30.186C83.3558 30.0787 83.1668 30.025 82.9568 30.025C82.7421 30.025 82.5531 30.0787 82.3898 30.186C82.2264 30.2887 82.0981 30.431 82.0048 30.613C81.9114 30.795 81.8648 31.0073 81.8648 31.25C81.8648 31.4927 81.9114 31.705 82.0048 31.887C82.0981 32.069 82.2288 32.2137 82.3968 32.321C82.5648 32.4237 82.7561 32.475 82.9708 32.475ZM86.4389 33L87.8389 29.5H88.5319L87.0689 33H86.4389ZM86.3969 33L84.9409 29.5H85.6199L87.0199 33H86.3969ZM89.0938 33V29.5H89.7588V33H89.0938ZM89.4298 28.758C89.3225 28.758 89.2292 28.7183 89.1498 28.639C89.0705 28.555 89.0308 28.4593 89.0308 28.352C89.0308 28.24 89.0705 28.1467 89.1498 28.072C89.2292 27.9927 89.3225 27.953 89.4298 27.953C89.5418 27.953 89.6352 27.9927 89.7098 28.072C89.7892 28.1467 89.8288 28.24 89.8288 28.352C89.8288 28.4593 89.7892 28.555 89.7098 28.639C89.6352 28.7183 89.5418 28.758 89.4298 28.758ZM90.7335 33V29.5H91.3565L91.3845 29.983C91.4965 29.7963 91.6365 29.6563 91.8045 29.563C91.9725 29.465 92.1662 29.416 92.3855 29.416C92.6655 29.416 92.9035 29.4813 93.0995 29.612C93.2955 29.738 93.4378 29.9317 93.5265 30.193C93.6292 29.941 93.7738 29.7497 93.9605 29.619C94.1472 29.4837 94.3688 29.416 94.6255 29.416C95.0222 29.416 95.3325 29.5467 95.5565 29.808C95.7805 30.0647 95.8902 30.4613 95.8855 30.998V33H95.2275V31.208C95.2275 30.8907 95.1925 30.6503 95.1225 30.487C95.0572 30.319 94.9685 30.2023 94.8565 30.137C94.7445 30.0717 94.6138 30.0367 94.4645 30.032C94.2032 30.032 94.0002 30.1323 93.8555 30.333C93.7155 30.5337 93.6455 30.816 93.6455 31.18V33H92.9805V31.208C92.9805 30.8907 92.9478 30.6503 92.8825 30.487C92.8172 30.319 92.7262 30.2023 92.6095 30.137C92.4975 30.0717 92.3668 30.0367 92.2175 30.032C91.9562 30.032 91.7532 30.1323 91.6085 30.333C91.4685 30.5337 91.3985 30.816 91.3985 31.18V33H90.7335ZM96.7774 33V29.5H97.4424V33H96.7774ZM97.1134 28.758C97.0061 28.758 96.9128 28.7183 96.8334 28.639C96.7541 28.555 96.7144 28.4593 96.7144 28.352C96.7144 28.24 96.7541 28.1467 96.8334 28.072C96.9128 27.9927 97.0061 27.953 97.1134 27.953C97.2254 27.953 97.3188 27.9927 97.3934 28.072C97.4728 28.1467 97.5124 28.24 97.5124 28.352C97.5124 28.4593 97.4728 28.555 97.3934 28.639C97.3188 28.7183 97.2254 28.758 97.1134 28.758ZM99.9641 33.084C99.6234 33.084 99.3224 33.007 99.0611 32.853C98.7997 32.6943 98.5944 32.4773 98.4451 32.202C98.2957 31.9267 98.2211 31.6093 98.2211 31.25C98.2211 30.8907 98.2957 30.5733 98.4451 30.298C98.5944 30.0227 98.7997 29.808 99.0611 29.654C99.3271 29.4953 99.6304 29.416 99.9711 29.416C100.293 29.416 100.575 29.4977 100.818 29.661C101.061 29.8197 101.25 30.0483 101.385 30.347C101.525 30.641 101.595 30.9887 101.595 31.39H98.7671L98.8931 31.285C98.8931 31.5323 98.9421 31.747 99.0401 31.929C99.1381 32.111 99.2711 32.251 99.4391 32.349C99.6071 32.4423 99.7984 32.489 100.013 32.489C100.246 32.489 100.44 32.4353 100.594 32.328C100.753 32.216 100.876 32.076 100.965 31.908L101.539 32.174C101.446 32.356 101.324 32.517 101.175 32.657C101.026 32.7923 100.848 32.8973 100.643 32.972C100.442 33.0467 100.216 33.084 99.9641 33.084ZM98.9351 30.97L98.8021 30.865H101.014L100.888 30.97C100.888 30.7647 100.846 30.5897 100.762 30.445C100.678 30.2957 100.566 30.1837 100.426 30.109C100.286 30.0297 100.13 29.99 99.9571 29.99C99.7891 29.99 99.6257 30.0297 99.4671 30.109C99.3131 30.1837 99.1847 30.2933 99.0821 30.438C98.9841 30.5827 98.9351 30.76 98.9351 30.97ZM102.252 33V29.5H102.875L102.917 30.144V33H102.252ZM104.674 33V31.208H105.339V33H104.674ZM104.674 31.208C104.674 30.8907 104.637 30.6503 104.562 30.487C104.492 30.319 104.392 30.2023 104.261 30.137C104.135 30.0717 103.988 30.0367 103.82 30.032C103.535 30.032 103.314 30.1323 103.155 30.333C102.996 30.5337 102.917 30.816 102.917 31.18H102.63C102.63 30.8113 102.684 30.4963 102.791 30.235C102.903 29.969 103.059 29.766 103.26 29.626C103.465 29.486 103.708 29.416 103.988 29.416C104.263 29.416 104.501 29.472 104.702 29.584C104.907 29.696 105.064 29.871 105.171 30.109C105.283 30.3423 105.339 30.6503 105.339 31.033V31.208H104.674ZM107.527 33.084C107.177 33.084 106.906 32.9953 106.715 32.818C106.524 32.636 106.428 32.377 106.428 32.041V28.408H107.093V31.943C107.093 32.1157 107.135 32.2487 107.219 32.342C107.308 32.4307 107.434 32.475 107.597 32.475C107.644 32.475 107.695 32.4657 107.751 32.447C107.807 32.4283 107.875 32.391 107.954 32.335L108.206 32.853C108.085 32.9323 107.968 32.9907 107.856 33.028C107.749 33.0653 107.639 33.084 107.527 33.084ZM105.833 30.074V29.5H108.087V30.074H105.833ZM110.417 33.084C110.067 33.084 109.759 33.007 109.493 32.853C109.227 32.6943 109.017 32.4773 108.863 32.202C108.714 31.9267 108.639 31.6093 108.639 31.25C108.639 30.8907 108.714 30.5733 108.863 30.298C109.012 30.0227 109.22 29.808 109.486 29.654C109.752 29.4953 110.058 29.416 110.403 29.416C110.748 29.416 111.054 29.4953 111.32 29.654C111.586 29.808 111.794 30.0227 111.943 30.298C112.092 30.5733 112.167 30.8907 112.167 31.25C112.167 31.6093 112.092 31.9267 111.943 32.202C111.794 32.4773 111.586 32.6943 111.32 32.853C111.059 33.007 110.758 33.084 110.417 33.084ZM110.417 32.475C110.627 32.475 110.814 32.4237 110.977 32.321C111.14 32.2137 111.266 32.069 111.355 31.887C111.448 31.705 111.495 31.4927 111.495 31.25C111.495 31.0073 111.448 30.795 111.355 30.613C111.266 30.431 111.138 30.2887 110.97 30.186C110.802 30.0787 110.613 30.025 110.403 30.025C110.188 30.025 109.999 30.0787 109.836 30.186C109.673 30.2887 109.544 30.431 109.451 30.613C109.358 30.795 109.311 31.0073 109.311 31.25C109.311 31.4927 109.358 31.705 109.451 31.887C109.544 32.069 109.675 32.2137 109.843 32.321C110.011 32.4237 110.202 32.475 110.417 32.475ZM116.152 33.084C115.811 33.084 115.51 33.007 115.249 32.853C114.987 32.6943 114.782 32.4773 114.633 32.202C114.483 31.9267 114.409 31.6093 114.409 31.25C114.409 30.8907 114.483 30.5733 114.633 30.298C114.782 30.0227 114.987 29.808 115.249 29.654C115.515 29.4953 115.818 29.416 116.159 29.416C116.481 29.416 116.763 29.4977 117.006 29.661C117.248 29.8197 117.437 30.0483 117.573 30.347C117.713 30.641 117.783 30.9887 117.783 31.39H114.955L115.081 31.285C115.081 31.5323 115.13 31.747 115.228 31.929C115.326 32.111 115.459 32.251 115.627 32.349C115.795 32.4423 115.986 32.489 116.201 32.489C116.434 32.489 116.628 32.4353 116.782 32.328C116.94 32.216 117.064 32.076 117.153 31.908L117.727 32.174C117.633 32.356 117.512 32.517 117.363 32.657C117.213 32.7923 117.036 32.8973 116.831 32.972C116.63 33.0467 116.404 33.084 116.152 33.084ZM115.123 30.97L114.99 30.865H117.202L117.076 30.97C117.076 30.7647 117.034 30.5897 116.95 30.445C116.866 30.2957 116.754 30.1837 116.614 30.109C116.474 30.0297 116.317 29.99 116.145 29.99C115.977 29.99 115.813 30.0297 115.655 30.109C115.501 30.1837 115.372 30.2933 115.27 30.438C115.172 30.5827 115.123 30.76 115.123 30.97ZM119.693 33.084C119.445 33.084 119.224 33.0467 119.028 32.972C118.836 32.8973 118.673 32.797 118.538 32.671C118.407 32.545 118.309 32.4027 118.244 32.244L118.818 31.992C118.892 32.1367 119.004 32.2557 119.154 32.349C119.303 32.4423 119.469 32.489 119.651 32.489C119.851 32.489 120.017 32.4517 120.148 32.377C120.278 32.3023 120.344 32.1973 120.344 32.062C120.344 31.9313 120.295 31.8287 120.197 31.754C120.099 31.6793 119.956 31.6187 119.77 31.572L119.441 31.488C119.114 31.3993 118.86 31.2663 118.678 31.089C118.5 30.9117 118.412 30.711 118.412 30.487C118.412 30.1463 118.521 29.8827 118.741 29.696C118.96 29.5093 119.284 29.416 119.714 29.416C119.924 29.416 120.115 29.4463 120.288 29.507C120.465 29.5677 120.614 29.654 120.736 29.766C120.862 29.878 120.95 30.011 121.002 30.165L120.442 30.417C120.386 30.277 120.29 30.1743 120.155 30.109C120.019 30.039 119.861 30.004 119.679 30.004C119.492 30.004 119.345 30.046 119.238 30.13C119.13 30.2093 119.077 30.3213 119.077 30.466C119.077 30.5453 119.121 30.6223 119.21 30.697C119.303 30.767 119.438 30.8253 119.616 30.872L119.994 30.963C120.222 31.019 120.411 31.1053 120.561 31.222C120.71 31.334 120.822 31.4623 120.897 31.607C120.971 31.747 121.009 31.894 121.009 32.048C121.009 32.258 120.95 32.4423 120.834 32.601C120.722 32.755 120.565 32.874 120.365 32.958C120.169 33.042 119.945 33.084 119.693 33.084ZM124.76 33.084C124.41 33.084 124.14 32.9953 123.948 32.818C123.757 32.636 123.661 32.377 123.661 32.041V28.408H124.326V31.943C124.326 32.1157 124.368 32.2487 124.452 32.342C124.541 32.4307 124.667 32.475 124.83 32.475C124.877 32.475 124.928 32.4657 124.984 32.447C125.04 32.4283 125.108 32.391 125.187 32.335L125.439 32.853C125.318 32.9323 125.201 32.9907 125.089 33.028C124.982 33.0653 124.872 33.084 124.76 33.084ZM123.066 30.074V29.5H125.32V30.074H123.066ZM128.476 33L128.434 32.356V29.5H129.092V33H128.476ZM126.012 31.292V29.5H126.677V31.292H126.012ZM126.677 31.292C126.677 31.6047 126.712 31.845 126.782 32.013C126.856 32.181 126.959 32.2977 127.09 32.363C127.22 32.4283 127.367 32.4633 127.531 32.468C127.815 32.468 128.037 32.3677 128.196 32.167C128.354 31.9663 128.434 31.684 128.434 31.32H128.721C128.721 31.6887 128.665 32.006 128.553 32.272C128.445 32.5333 128.291 32.734 128.091 32.874C127.89 33.014 127.645 33.084 127.356 33.084C127.085 33.084 126.847 33.028 126.642 32.916C126.441 32.804 126.285 32.629 126.173 32.391C126.065 32.153 126.012 31.845 126.012 31.467V31.292H126.677ZM130.447 34.484C130.344 34.484 130.23 34.4653 130.104 34.428C129.982 34.3907 129.856 34.3417 129.726 34.281L129.971 33.735C130.073 33.7817 130.162 33.8167 130.237 33.84C130.316 33.8633 130.379 33.875 130.426 33.875C130.542 33.875 130.64 33.8423 130.72 33.777C130.804 33.7117 130.871 33.6207 130.923 33.504L131.329 32.545L132.575 29.5H133.289L131.63 33.434C131.541 33.6487 131.448 33.8353 131.35 33.994C131.252 34.1527 131.13 34.274 130.986 34.358C130.846 34.442 130.666 34.484 130.447 34.484ZM131.147 33L129.614 29.5H130.321L131.588 32.538L131.791 33H131.147ZM135.293 33.084C134.943 33.084 134.635 33.007 134.369 32.853C134.103 32.6943 133.893 32.4773 133.739 32.202C133.59 31.9267 133.515 31.6093 133.515 31.25C133.515 30.8907 133.59 30.5733 133.739 30.298C133.888 30.0227 134.096 29.808 134.362 29.654C134.628 29.4953 134.934 29.416 135.279 29.416C135.624 29.416 135.93 29.4953 136.196 29.654C136.462 29.808 136.67 30.0227 136.819 30.298C136.968 30.5733 137.043 30.8907 137.043 31.25C137.043 31.6093 136.968 31.9267 136.819 32.202C136.67 32.4773 136.462 32.6943 136.196 32.853C135.935 33.007 135.634 33.084 135.293 33.084ZM135.293 32.475C135.503 32.475 135.69 32.4237 135.853 32.321C136.016 32.2137 136.142 32.069 136.231 31.887C136.324 31.705 136.371 31.4927 136.371 31.25C136.371 31.0073 136.324 30.795 136.231 30.613C136.142 30.431 136.014 30.2887 135.846 30.186C135.678 30.0787 135.489 30.025 135.279 30.025C135.064 30.025 134.875 30.0787 134.712 30.186C134.549 30.2887 134.42 30.431 134.327 30.613C134.234 30.795 134.187 31.0073 134.187 31.25C134.187 31.4927 134.234 31.705 134.327 31.887C134.42 32.069 134.551 32.2137 134.719 32.321C134.887 32.4237 135.078 32.475 135.293 32.475ZM138.073 33.098C137.956 33.098 137.853 33.056 137.765 32.972C137.681 32.888 137.639 32.7853 137.639 32.664C137.639 32.5427 137.681 32.44 137.765 32.356C137.853 32.272 137.956 32.23 138.073 32.23C138.194 32.23 138.297 32.272 138.381 32.356C138.469 32.44 138.514 32.5427 138.514 32.664C138.514 32.7853 138.469 32.888 138.381 32.972C138.297 33.056 138.194 33.098 138.073 33.098Z" fill="#383838"/>
</svg>
