<svg width="82" height="26" viewBox="0 0 82 26" fill="none" xmlns="http://www.w3.org/2000/svg">
<path d="M21.6667 0H4.33333C1.9401 0 0 1.9401 0 4.33333V21.6667C0 24.0599 1.9401 26 4.33333 26H21.6667C24.0599 26 26 24.0599 26 21.6667V4.33333C26 1.9401 24.0599 0 21.6667 0Z" fill="black"/>
<path fill-rule="evenodd" clip-rule="evenodd" d="M17.8041 16.838C17.8041 16.8073 17.9259 16.3112 17.5607 16.6033C17.4481 16.6964 17.2434 16.8518 17.2157 16.8732C16.7979 17.1979 12.3755 20.6321 11.9706 20.8964C11.8248 20.9894 11.8119 20.9617 7.12385 20.9663C5.10401 20.9663 4.9768 21.0741 5.00262 20.9039C5.00908 20.8518 7.36548 19.1043 9.27188 17.6305C9.51813 17.4444 18.566 10.5285 18.6546 10.4662C18.9449 10.2252 19.2958 10.0704 19.6683 10.0189C20.0408 9.96746 20.4201 10.0214 20.764 10.1748C21.1078 10.3281 21.4027 10.5748 21.6157 10.8874C21.8287 11.1999 21.9514 11.566 21.9702 11.9448C22.0302 14.0308 21.9822 18.2884 21.9757 18.8392C21.9728 19.2108 21.874 19.5753 21.6891 19.8967C21.5042 20.218 21.2395 20.4851 20.9211 20.6719C20.6027 20.8588 20.2416 20.959 19.8733 20.9623C19.505 20.9655 19.1421 20.8719 18.8205 20.6908C17.6068 19.9251 17.8041 18.8598 17.8041 16.838Z" fill="#FEFEFE"/>
<path fill-rule="evenodd" clip-rule="evenodd" d="M6.16977 15.8312C5.83206 15.6663 5.5439 15.4035 5.33761 15.0723C5.13131 14.7412 5.01506 14.3549 5.00194 13.9567C4.99758 13.7862 5.00194 7.48991 5.00194 7.08127C5.01346 6.71432 5.11307 6.35675 5.29105 6.04325C5.46902 5.72974 5.71935 5.47081 6.01784 5.2917C6.31632 5.11259 6.65281 5.01937 6.99474 5.0209C7.33666 5.02243 7.67242 5.11874 7.96951 5.30051C9.27086 6.13183 8.87463 7.54987 8.92526 9.30811C8.93049 9.49556 9.01952 9.42339 9.15481 9.30811C9.85305 8.72984 10.5391 8.18343 10.6595 8.08315C14.0635 5.34924 14.0416 5.32387 14.3384 5.08394C14.4693 4.9799 14.4911 5.02957 19.9488 5.01083C20.7779 5.01083 21.2266 4.94157 20.8844 5.15338C20.7029 5.26491 20.7099 5.27615 17.6062 7.81417C17.0502 8.26873 10.7625 13.4085 10.6578 13.491C8.40069 15.2755 7.6998 16.4554 6.16977 15.8312Z" fill="#FEFEFE"/>
<path d="M35.16 16.46L34.84 13.02L41.4 6H44.94L35.16 16.46ZM33.52 20V6H36.22V20H33.52ZM41.78 20L36.2 12.88L38.18 11.24L45.16 20H41.78ZM46.4603 20V6H49.1003V20H46.4603ZM53.3822 24.24C53.0222 24.24 52.6222 24.1667 52.1822 24.02C51.7555 23.8867 51.3755 23.7267 51.0422 23.54L52.0222 21.4C52.2489 21.52 52.4555 21.6133 52.6422 21.68C52.8422 21.76 53.0155 21.8 53.1622 21.8C53.4422 21.8 53.6889 21.72 53.9022 21.56C54.1155 21.4133 54.2889 21.1933 54.4222 20.9L55.6022 18.12L58.7822 10H61.6822L57.1422 20.86C56.8622 21.5267 56.5689 22.1133 56.2622 22.62C55.9555 23.14 55.5755 23.54 55.1222 23.82C54.6822 24.1 54.1022 24.24 53.3822 24.24ZM54.9022 20L50.3222 10H53.2222L56.5622 18.12L57.4222 20H54.9022ZM62.9056 20V10H65.3856L65.5456 11.84V20H62.9056ZM69.5256 20V14.88H72.1656V20H69.5256ZM69.5256 14.88C69.5256 14.2 69.4456 13.6733 69.2856 13.3C69.139 12.9267 68.9256 12.66 68.6456 12.5C68.3656 12.3267 68.039 12.24 67.6656 12.24C66.9856 12.2267 66.459 12.4333 66.0856 12.86C65.7256 13.2867 65.5456 13.92 65.5456 14.76H64.6656C64.6656 13.6933 64.819 12.7933 65.1256 12.06C65.4456 11.3133 65.8856 10.7467 66.4456 10.36C67.019 9.96 67.6856 9.76 68.4456 9.76C69.2323 9.76 69.9056 9.92 70.4656 10.24C71.0256 10.56 71.4523 11.06 71.7456 11.74C72.039 12.4067 72.179 13.2733 72.1656 14.34V14.88H69.5256Z" fill="black"/>
</svg>
