<svg width="643" height="647" viewBox="0 0 643 647" fill="none" xmlns="http://www.w3.org/2000/svg">
<path d="M321.5 391.009C357.722 391.009 387.086 361.64 387.086 325.412C387.086 289.184 357.722 259.815 321.5 259.815C285.278 259.815 255.914 289.184 255.914 325.412C255.914 361.64 285.278 391.009 321.5 391.009Z" stroke="#DFDFDF" stroke-width="1.5"/>
<path d="M322.143 201.935C313.721 201.935 305.306 202.784 297.13 204.457C289.163 206.088 281.327 208.521 273.839 211.688C266.486 214.799 259.394 218.649 252.76 223.132C246.188 227.572 240.008 232.672 234.392 238.289C228.775 243.907 223.676 250.087 219.237 256.66C214.755 263.296 210.905 270.389 207.795 277.743C204.628 285.232 202.196 293.07 200.565 301.038C198.892 309.215 198.044 317.632 198.044 326.055C198.044 334.478 198.892 342.895 200.565 351.072C202.196 359.04 204.628 366.878 207.795 374.367C210.905 381.721 214.755 388.814 219.237 395.45C223.676 402.023 228.775 408.203 234.392 413.821C240.008 419.438 246.188 424.538 252.76 428.978C259.394 433.461 266.486 437.311 273.839 440.422C281.327 443.589 289.163 446.022 297.13 447.653C305.306 449.326 313.721 450.175 322.143 450.175C330.565 450.175 338.98 449.326 347.156 447.653C355.123 446.022 362.959 443.589 370.447 440.422C377.8 437.311 384.892 433.461 391.526 428.978C398.098 424.538 404.278 419.438 409.894 413.821C415.511 408.203 420.61 402.023 425.049 395.45C429.531 388.814 433.381 381.721 436.491 374.367C439.658 366.878 442.09 359.04 443.721 351.072C445.394 342.895 446.242 334.478 446.242 326.055C446.242 317.632 445.394 309.215 443.721 301.038C442.09 293.07 439.658 285.232 436.491 277.743C433.381 270.389 429.531 263.296 425.049 256.66C420.61 250.087 415.511 243.907 409.894 238.289C404.278 232.672 398.098 227.572 391.526 223.132C384.892 218.649 377.8 214.799 370.447 211.688C362.959 208.521 355.123 206.088 347.156 204.457C338.98 202.784 330.565 201.935 322.143 201.935ZM322.143 199.363C392.101 199.363 448.814 256.085 448.814 326.055C448.814 396.025 392.101 452.747 322.143 452.747C252.185 452.747 195.472 396.025 195.472 326.055C195.472 256.085 252.185 199.363 322.143 199.363Z" fill="#EBEBEB"/>
<path d="M322.786 518.344C428.611 518.344 514.4 432.541 514.4 326.698C514.4 220.855 428.611 135.052 322.786 135.052C216.961 135.052 131.172 220.855 131.172 326.698C131.172 432.541 216.961 518.344 322.786 518.344Z" stroke="#EEEEEE" stroke-width="1.5"/>
<path d="M321.5 70.7417C304.222 70.7417 286.956 72.4825 270.181 75.9158C253.834 79.2615 237.754 84.2537 222.388 90.7539C207.301 97.1363 192.749 105.036 179.137 114.234C165.653 123.345 152.974 133.808 141.451 145.333C129.928 156.858 119.466 169.539 110.357 183.025C101.161 196.64 93.2622 211.194 86.8809 226.284C80.3818 241.652 75.3904 257.734 72.0452 274.084C68.6126 290.862 66.872 308.131 66.872 325.412C66.872 342.693 68.6126 359.962 72.0452 376.74C75.3904 393.09 80.3818 409.172 86.8809 424.54C93.2622 439.63 101.161 454.184 110.357 467.799C119.466 481.284 129.928 493.966 141.451 505.491C152.974 517.016 165.653 527.479 179.137 536.59C192.749 545.788 207.301 553.688 222.388 560.07C237.754 566.57 253.834 571.562 270.181 574.908C286.956 578.341 304.222 580.082 321.5 580.082C338.778 580.082 356.044 578.341 372.819 574.908C389.167 571.562 405.246 566.57 420.612 560.07C435.699 553.688 450.251 545.788 463.863 536.59C477.347 527.479 490.026 517.016 501.549 505.491C513.072 493.966 523.534 481.284 532.643 467.799C541.839 454.184 549.738 439.63 556.119 424.54C562.618 409.172 567.61 393.09 570.955 376.74C574.388 359.962 576.128 342.693 576.128 325.412C576.128 308.131 574.388 290.862 570.955 274.084C567.61 257.734 562.618 241.652 556.119 226.284C549.738 211.194 541.839 196.64 532.643 183.025C523.534 169.539 513.072 156.858 501.549 145.333C490.026 133.808 477.347 123.345 463.863 114.234C450.251 105.036 435.699 97.1363 420.612 90.7539C405.246 84.2537 389.167 79.2615 372.819 75.9158C356.044 72.4825 338.778 70.7417 321.5 70.7417ZM321.5 68.1693C463.548 68.1693 578.7 183.341 578.7 325.412C578.7 467.483 463.548 582.654 321.5 582.654C179.452 582.654 64.3 467.483 64.3 325.412C64.3 183.341 179.452 68.1693 321.5 68.1693Z" fill="#F2F2F2"/>
<path d="M321.5 645.679C498.349 645.679 641.714 502.29 641.714 325.412C641.714 148.533 498.349 5.14484 321.5 5.14484C144.651 5.14484 1.28601 148.533 1.28601 325.412C1.28601 502.29 144.651 645.679 321.5 645.679Z" stroke="#F3F3F3" stroke-width="1.5"/>
<path fill-rule="evenodd" clip-rule="evenodd" d="M289.378 328.281C289.387 327.959 288.809 321.686 293.599 320.77C296.031 320.304 296.033 320.055 297.06 317.839C299.097 313.446 302.253 309.666 306.211 306.877C310.169 304.089 314.791 302.39 319.612 301.951C335.627 300.037 344.005 308.427 345.718 309.869C347.543 311.413 347.63 306.973 347.638 306.676C347.767 300.116 340.308 301.118 339.53 301.22C335.969 301.695 334.266 296.885 338.372 295.475C347.713 292.267 358.577 303.064 351.207 314.471C349.217 317.551 353.5 318.563 352.801 327.719C352.176 335.924 345.763 341.965 344.764 342.91C342.382 345.153 347 353.177 340.624 353.291C336.983 353.355 335.078 353.676 333.469 351.507C332.183 349.766 332.086 349.413 329.541 349.835C319.045 351.59 317.178 347.648 314.863 351.159C313.219 353.652 312.514 353.365 306.837 353.28C303.236 353.225 304.207 348.489 304.156 344.886C304.127 343.033 302.061 342.382 301.378 341.987C289.897 335.357 289.697 334.561 289.377 328.272L289.378 328.281Z" fill="black"/>
<path fill-rule="evenodd" clip-rule="evenodd" d="M321.208 309.19C326.903 308.539 331.939 311.305 330.399 313.732C329.139 315.719 326.19 314.107 326.149 314.095C321.172 312.327 317.976 315.124 316.19 314.711C315.098 314.461 311.877 310.384 321.206 309.193L321.208 309.19Z" fill="#F6F7F5"/>
<path fill-rule="evenodd" clip-rule="evenodd" d="M307.961 318.658C314.563 320.472 308.191 327.128 305.43 323.133C305.201 322.744 305.063 322.31 305.025 321.86C304.988 321.411 305.052 320.959 305.213 320.538C305.734 319.041 307.704 318.697 307.961 318.658Z" fill="#F6F7F5"/>
<path d="M213.476 442.457H177.468C173.207 442.457 169.752 445.912 169.752 450.175V486.189C169.752 490.451 173.207 493.906 177.468 493.906H213.476C217.738 493.906 221.192 490.451 221.192 486.189V450.175C221.192 445.912 217.738 442.457 213.476 442.457Z" fill="#EEEEEE"/>
<path d="M236.624 141.483H207.046C202.785 141.483 199.33 144.939 199.33 149.201V178.784C199.33 183.046 202.785 186.501 207.046 186.501H236.624C240.886 186.501 244.34 183.046 244.34 178.784V149.201C244.34 144.939 240.886 141.483 236.624 141.483Z" fill="#EEEEEE"/>
<path d="M456.53 267.532H420.522C416.261 267.532 412.806 270.987 412.806 275.25V311.263C412.806 315.526 416.261 318.981 420.522 318.981H456.53C460.791 318.981 464.246 315.526 464.246 311.263V275.25C464.246 270.987 460.791 267.532 456.53 267.532Z" fill="#EEEEEE"/>
<path d="M81.0181 304.833H57.8701C53.6086 304.833 50.1541 308.288 50.1541 312.55V335.702C50.1541 339.964 53.6086 343.419 57.8701 343.419H81.0181C85.2795 343.419 88.7341 339.964 88.7341 335.702V312.55C88.7341 308.288 85.2795 304.833 81.0181 304.833Z" fill="#EEEEEE"/>
<path d="M541.406 167.208H518.258C513.997 167.208 510.542 170.663 510.542 174.925V198.077C510.542 202.339 513.997 205.794 518.258 205.794H541.406C545.667 205.794 549.122 202.339 549.122 198.077V174.925C549.122 170.663 545.667 167.208 541.406 167.208Z" fill="#EEEEEE"/>
<path d="M424.38 0H401.232C396.971 0 393.516 3.45514 393.516 7.71728V30.8691C393.516 35.1312 396.971 38.5864 401.232 38.5864H424.38C428.641 38.5864 432.096 35.1312 432.096 30.8691V7.71728C432.096 3.45514 428.641 0 424.38 0Z" fill="#EEEEEE"/>
<path d="M570.984 403.871H547.836C543.575 403.871 540.12 407.326 540.12 411.588V434.74C540.12 439.002 543.575 442.457 547.836 442.457H570.984C575.245 442.457 578.7 439.002 578.7 434.74V411.588C578.7 407.326 575.245 403.871 570.984 403.871Z" fill="#EEEEEE"/>
<path d="M414.092 128.621H384.514C380.253 128.621 376.798 132.076 376.798 136.339V165.921C376.798 170.184 380.253 173.639 384.514 173.639H414.092C418.354 173.639 421.808 170.184 421.808 165.921V136.339C421.808 132.076 418.354 128.621 414.092 128.621Z" fill="#EEEEEE"/>
<path d="M145.318 46.3036H115.74C111.479 46.3036 108.024 49.7588 108.024 54.0209V83.6038C108.024 87.866 111.479 91.3211 115.74 91.3211H145.318C149.579 91.3211 153.034 87.866 153.034 83.6038V54.0209C153.034 49.7588 149.579 46.3036 145.318 46.3036Z" fill="#EEEEEE"/>
<path d="M198.044 455.319H194.186C191.155 455.319 189.639 455.319 188.697 456.261C187.756 457.202 187.756 458.719 187.756 461.75V474.613C187.756 477.644 187.756 479.159 188.697 480.102C189.639 481.045 191.155 481.044 194.186 481.044H198.044C201.075 481.044 202.59 481.044 203.533 480.102C204.475 479.161 204.474 477.644 204.474 474.613V461.75C204.474 458.719 204.474 457.202 203.533 456.261C202.591 455.319 201.075 455.319 198.044 455.319Z" stroke="#F0A026" stroke-width="1.5" stroke-linecap="round" stroke-linejoin="round"/>
<path d="M198.687 455.319H193.543L194.186 456.606H198.044L198.687 455.319Z" stroke="#F0A026" stroke-width="1.5" stroke-linecap="round" stroke-linejoin="round"/>
<path d="M450.1 299.688V289.398C450.1 286.366 450.1 284.85 449.159 283.908C448.217 282.967 446.701 282.967 443.67 282.967H434.668C431.637 282.967 430.121 282.967 429.179 283.908C428.238 284.85 428.238 286.366 428.238 289.398V299.688" stroke="#820ADC" stroke-width="1.5" stroke-linecap="round" stroke-linejoin="round"/>
<path d="M452.008 304.832H426.33C426.218 304.836 426.108 304.81 426.01 304.758C425.912 304.706 425.829 304.629 425.769 304.535C425.709 304.441 425.675 304.333 425.669 304.222C425.664 304.111 425.687 304.001 425.737 303.901L428.238 299.688H450.1L452.601 303.901C452.651 304.001 452.674 304.111 452.669 304.222C452.663 304.333 452.629 304.441 452.569 304.535C452.509 304.629 452.426 304.706 452.328 304.758C452.23 304.81 452.12 304.836 452.008 304.832Z" stroke="#820ADC" stroke-width="1.5" stroke-linecap="round" stroke-linejoin="round"/>
<path d="M210.261 164.635L212.833 165.921" stroke="#FF4A4A" stroke-width="1.5" stroke-linecap="round" stroke-linejoin="round"/>
<path d="M234.695 165.278L232.123 165.921" stroke="#FF4A4A" stroke-width="1.5" stroke-linecap="round" stroke-linejoin="round"/>
<path d="M217.334 171.709L217.65 170.92C218.12 169.745 218.355 169.158 218.845 168.826C219.593 168.491 220.421 168.376 221.232 168.494H223.724C224.536 168.375 225.364 168.49 226.112 168.826C226.602 169.158 226.838 169.745 227.307 170.92L227.622 171.709" stroke="#FF4A4A" stroke-width="1.5" stroke-linecap="round" stroke-linejoin="round"/>
<path d="M209.618 171.066V174.773C209.626 175.022 209.706 175.262 209.848 175.467C209.99 175.671 210.188 175.829 210.418 175.923C210.723 176.09 211.06 176.188 211.407 176.211H213.616C213.963 176.188 214.3 176.09 214.605 175.923C214.835 175.829 215.033 175.671 215.175 175.467C215.317 175.262 215.397 175.022 215.405 174.773V172.352" stroke="#FF4A4A" stroke-width="1.5" stroke-linecap="round" stroke-linejoin="round"/>
<path d="M229.551 172.352V174.773C229.559 175.022 229.639 175.262 229.781 175.467C229.923 175.671 230.121 175.829 230.351 175.923C230.656 176.09 230.993 176.188 231.34 176.211H233.551C233.897 176.188 234.235 176.09 234.539 175.923C234.769 175.829 234.967 175.67 235.109 175.466C235.251 175.262 235.33 175.021 235.338 174.773V171.066" stroke="#FF4A4A" stroke-width="1.5" stroke-linecap="round" stroke-linejoin="round"/>
<path d="M232.766 160.133L234.052 159.49" stroke="#FF4A4A" stroke-width="1.5" stroke-linecap="round" stroke-linejoin="round"/>
<path d="M212.19 160.133L210.904 159.49" stroke="#FF4A4A" stroke-width="1.5" stroke-linecap="round" stroke-linejoin="round"/>
<path d="M212.833 160.777L214.232 156.577C214.798 154.879 215.081 154.03 215.755 153.544C216.429 153.058 217.324 153.059 219.113 153.059H225.844C227.632 153.059 228.527 153.059 229.201 153.546C229.875 154.032 230.158 154.881 230.724 156.578L232.123 160.777" stroke="#FF4A4A" stroke-width="1.5" stroke-linecap="round" stroke-linejoin="round"/>
<path d="M212.833 160.777H232.123C233.354 162.081 235.338 163.896 235.338 165.921V170.385C235.353 170.721 235.247 171.051 235.038 171.315C234.83 171.579 234.533 171.759 234.203 171.821L230.194 172.353H214.762L210.754 171.821C210.423 171.759 210.126 171.579 209.918 171.315C209.709 171.051 209.603 170.721 209.618 170.385V165.921C209.618 163.896 211.602 162.081 212.833 160.777Z" stroke="#FF4A4A" stroke-width="1.5" stroke-linecap="round" stroke-linejoin="round"/>
<path d="M386.779 149.139L393.362 141.238M393.362 141.238L400.491 148.368C400.717 148.642 400.993 148.87 401.304 149.04C401.644 149.139 402 149.173 402.353 149.14H413.113L408.11 143.134C407.666 142.472 407.088 141.91 406.413 141.487C405.656 141.239 404.855 141.154 404.063 141.238H393.362Z" stroke="#1BAE29" stroke-width="1.5" stroke-linecap="round" stroke-linejoin="round"/>
<path d="M398.629 146.506V162.31H388.096V147.635" stroke="#1BAE29" stroke-width="1.5" stroke-linecap="round" stroke-linejoin="round"/>
<path d="M398.629 162.308H411.797V147.822" stroke="#1BAE29" stroke-width="1.5" stroke-linecap="round" stroke-linejoin="round"/>
<path d="M389.412 145.848V141.238" stroke="#1BAE29" stroke-width="1.5" stroke-linecap="round" stroke-linejoin="round"/>
<path d="M393.372 151.773H393.362" stroke="#1BAE29" stroke-width="1.5" stroke-linecap="round" stroke-linejoin="round"/>
<path d="M393.362 162.315V157.041" stroke="#1BAE29" stroke-width="1.5" stroke-linecap="round" stroke-linejoin="round"/>
<path d="M403.897 154.407H406.53" stroke="#1BAE29" stroke-width="1.5" stroke-linecap="round" stroke-linejoin="round"/>
<path d="M417.022 10.3322C418.002 9.63967 419.205 9.33622 420.397 9.4807C420.806 9.45226 421.216 9.49049 421.613 9.59389C421.814 9.6723 421.997 9.7918 422.15 9.94481C422.303 10.0978 422.423 10.281 422.501 10.4827C422.605 10.879 422.643 11.2895 422.614 11.6981C422.76 12.8903 422.457 14.094 421.766 15.0757C421.079 15.9259 419.897 16.3709 419.329 17.3099C419.168 17.6571 419.081 18.0339 419.073 18.4164C419.066 18.799 419.137 19.179 419.284 19.5325L420.679 25.251C420.837 25.7178 420.852 26.2212 420.722 26.6965C420.591 27.1718 420.322 27.5974 419.948 27.9186C419.524 28.343 419.177 28.3211 418.828 27.7732L414.618 21.063L412.607 22.6618C411.878 23.2419 411.514 23.5313 411.321 23.939C411.039 25.0587 410.988 26.2242 411.172 27.3642C411.179 27.9366 410.685 29.0646 409.986 29.1032C409.554 29.1263 409.407 28.6093 409.267 28.2928L407.924 25.2394C407.603 24.5088 407.59 24.4959 406.86 24.1744L403.807 22.8316C403.489 22.6914 402.973 22.5448 402.996 22.1126C403.035 21.4129 404.163 20.9177 404.735 20.9254C405.875 21.1092 407.04 21.0584 408.16 20.7762C408.567 20.5846 408.857 20.2206 409.437 19.49L411.035 17.4809L404.326 13.2699C403.778 12.9265 403.756 12.5728 404.181 12.1496C404.502 11.7746 404.929 11.5044 405.405 11.374C405.881 11.2435 406.386 11.2588 406.853 11.4177L412.571 12.8133C412.924 12.9597 413.304 13.0313 413.687 13.0236C414.069 13.0158 414.446 12.9289 414.793 12.7683C415.727 12.1998 416.17 11.0242 417.022 10.3322Z" stroke="#5F5F5F" stroke-width="1.5" stroke-linecap="round" stroke-linejoin="round"/>
<path d="M61.638 326.402C60.7848 325.003 60.3345 323.395 60.3366 321.755C60.3366 319.339 61.2961 317.022 63.0041 315.314C64.712 313.606 67.0286 312.646 69.444 312.646C71.8595 312.646 74.176 313.606 75.8839 315.314C77.5919 317.022 78.5515 319.339 78.5515 321.755C78.5536 323.395 78.1033 325.003 77.25 326.402" stroke="black" stroke-width="1.5" stroke-linecap="round"/>
<path d="M64.1882 329.93C64.1065 329.74 64.0557 329.538 64.0377 329.331C64.0438 329.199 64.088 329.072 64.1649 328.965C64.2418 328.857 64.3482 328.775 64.4711 328.727C64.6722 328.678 64.8798 328.663 65.0858 328.68H73.8023C74.0084 328.663 74.2159 328.678 74.417 328.727C74.5399 328.775 74.6463 328.857 74.7232 328.965C74.8001 329.072 74.8443 329.199 74.8504 329.331C74.8324 329.538 74.7816 329.74 74.6999 329.93C74.5963 330.315 74.4492 330.687 74.2614 331.039C73.9497 331.532 73.4602 331.886 72.8944 332.028C72.5026 332.096 72.1043 332.118 71.7074 332.095H67.1807C66.7838 332.118 66.3855 332.096 65.9937 332.028C65.4279 331.886 64.9384 331.532 64.6267 331.039C64.4389 330.687 64.2918 330.315 64.1882 329.93Z" stroke="black" stroke-width="1.5" stroke-linecap="round"/>
<path d="M72.8597 332.095L72.7131 332.831C72.6484 333.357 72.5063 333.871 72.2913 334.356C72.0122 334.848 71.5603 335.219 71.0233 335.396C70.5058 335.511 69.9741 335.55 69.4453 335.51C68.9166 335.55 68.3849 335.511 67.8674 335.396C67.3304 335.219 66.8785 334.848 66.5994 334.356C66.3845 333.871 66.2423 333.357 66.1776 332.831L66.0284 332.095" stroke="black" stroke-width="1.5" stroke-linecap="round"/>
<path d="M65.1745 321.564L67.7362 324.126V328.684M65.1745 322.418C65.3433 322.418 65.5084 322.367 65.6489 322.274C65.7893 322.18 65.8987 322.046 65.9634 321.89C66.028 321.734 66.0449 321.563 66.012 321.397C65.979 321.231 65.8977 321.079 65.7783 320.96C65.6588 320.84 65.5067 320.759 65.341 320.726C65.1754 320.693 65.0037 320.71 64.8477 320.774C64.6917 320.839 64.5583 320.949 64.4645 321.089C64.3706 321.229 64.3206 321.395 64.3206 321.564C64.3206 321.79 64.4105 322.007 64.5707 322.167C64.7308 322.328 64.948 322.418 65.1745 322.418Z" stroke="black" stroke-width="1.5" stroke-linecap="round"/>
<path d="M73.7136 321.564L71.1519 324.126V328.684M73.7136 322.421C73.5447 322.421 73.3796 322.371 73.2392 322.278C73.0987 322.184 72.9893 322.05 72.9247 321.894C72.86 321.738 72.8431 321.566 72.8761 321.401C72.909 321.235 72.9903 321.083 73.1098 320.964C73.2292 320.844 73.3813 320.763 73.547 320.73C73.7126 320.697 73.8843 320.714 74.0403 320.778C74.1964 320.843 74.3297 320.952 74.4236 321.093C74.5174 321.233 74.5675 321.399 74.5675 321.567C74.5665 321.793 74.476 322.01 74.316 322.169C74.156 322.328 73.9394 322.418 73.7136 322.418V322.421Z" stroke="black" stroke-width="1.5" stroke-linecap="round"/>
<path d="M523.428 183.654C523.428 183.654 520.791 186.273 520.016 185.953C518.922 185.5 518.446 181.113 519.192 180.443L522.053 177.87C522.408 177.4 522.887 177.037 523.437 176.824C523.986 176.611 524.584 176.555 525.164 176.664H526.933C527.191 178.247 528.724 180.148 530.475 180.148C532.227 180.148 533.749 178.247 534.018 176.664H535.786C536.365 176.555 536.963 176.61 537.513 176.822C538.062 177.035 538.542 177.396 538.897 177.867L541.758 180.439C542.503 181.109 542.03 185.496 540.935 185.949C540.164 186.269 537.518 183.651 537.518 183.651" stroke="#F386F0" stroke-width="1.5" stroke-linecap="round" stroke-linejoin="round"/>
<path d="M523.489 182.487V194.745C523.432 195.08 523.488 195.424 523.647 195.723C523.805 196.023 524.059 196.262 524.368 196.402C526.303 197.21 528.379 197.626 530.476 197.626C532.573 197.626 534.65 197.21 536.585 196.402C536.894 196.262 537.147 196.023 537.306 195.723C537.465 195.424 537.52 195.08 537.463 194.745V182.487" stroke="#F386F0" stroke-width="1.5" stroke-linecap="round" stroke-linejoin="round"/>
<path d="M523.49 184.816C525.818 187.921 535.133 187.921 537.462 184.816" stroke="#F386F0" stroke-width="1.5" stroke-linecap="round" stroke-linejoin="round"/>
<path d="M569.055 432.168C570.831 432.168 572.27 430.728 572.27 428.952C572.27 427.176 570.831 425.736 569.055 425.736C567.279 425.736 565.84 427.176 565.84 428.952C565.84 430.728 567.279 432.168 569.055 432.168Z" stroke="#39B9E3" stroke-width="1.5"/>
<path d="M549.765 432.168C551.541 432.168 552.98 430.728 552.98 428.952C552.98 427.176 551.541 425.736 549.765 425.736C547.989 425.736 546.55 427.176 546.55 428.952C546.55 430.728 547.989 432.168 549.765 432.168Z" stroke="#39B9E3" stroke-width="1.5"/>
<path d="M570 417.852C571.233 419.229 572.024 420.946 572.27 422.778C571.373 422.374 570.401 422.164 569.418 422.163C568.434 422.162 567.462 422.37 566.564 422.773C565.667 423.176 564.865 423.764 564.212 424.5C563.56 425.236 563.07 426.102 562.777 427.041C562.616 427.707 562.535 428.04 562.36 428.178C562.185 428.315 561.902 428.309 561.339 428.309H557.637C557.068 428.309 556.784 428.309 556.608 428.17C556.432 428.031 556.351 427.698 556.201 427.034C555.558 424.284 552.976 421.889 550.286 422.096C550.12 422.12 549.952 422.124 549.786 422.107C549.653 422.064 549.527 422.003 549.411 421.927C548.87 421.621 548.317 421.331 547.786 421.007C547.421 420.785 547.117 420.476 546.901 420.108C546.685 419.74 546.565 419.323 546.55 418.896C546.533 418.404 546.816 417.914 547.388 418.049L555.647 419.992C556.03 420.123 556.434 420.181 556.838 420.162C557.291 419.994 557.713 419.751 558.084 419.442C559.056 418.707 560.186 418.21 561.384 417.992C562.582 417.773 563.815 417.839 564.984 418.184C565.394 418.363 565.822 418.495 566.262 418.579C566.638 418.539 567.008 418.453 567.363 418.321C568.222 418.068 569.106 417.911 570 417.852ZM570 417.852C568.741 416.354 567.214 415.102 565.498 414.161" stroke="#39B9E3" stroke-width="1.5"/>
<path d="M118.312 70.7417V65.5968C118.312 60.7465 118.312 58.3207 119.819 56.8146C121.326 55.3084 123.751 55.3071 128.6 55.3071H131.172C136.022 55.3071 138.447 55.3071 139.953 56.8146C141.459 58.322 141.46 60.7465 141.46 65.5968V70.7417C141.46 75.592 141.46 78.0178 139.953 79.5239C138.446 81.0301 136.022 81.0314 131.172 81.0314H128.6C123.751 81.0314 121.325 81.0314 119.819 79.5239C118.313 78.0165 118.312 75.592 118.312 70.7417Z" stroke="#6561DE" stroke-width="1.5" stroke-linecap="round" stroke-linejoin="round"/>
<path d="M123.456 60.452V60.4641" stroke="#6561DE" stroke-width="1.5" stroke-linecap="round" stroke-linejoin="round"/>
<path d="M136.316 69.4555C136.316 70.7274 135.939 71.9708 135.232 73.0284C134.526 74.086 133.522 74.9103 132.347 75.397C131.172 75.8838 129.879 76.0111 128.632 75.763C127.384 75.5148 126.239 74.9023 125.339 74.0029C124.44 73.1035 123.828 71.9576 123.58 70.7101C123.332 69.4626 123.459 68.1695 123.946 66.9944C124.432 65.8193 125.256 64.8149 126.314 64.1082C127.371 63.4016 128.614 63.0244 129.886 63.0244C131.591 63.0244 133.227 63.702 134.433 64.908C135.639 66.1141 136.316 67.7499 136.316 69.4555Z" stroke="#6561DE" stroke-width="1.5" stroke-linecap="round" stroke-linejoin="round"/>
<path d="M123.456 69.4555C124.323 68.6298 125.474 68.1693 126.671 68.1693C127.868 68.1693 129.019 68.6298 129.886 69.4555C130.753 70.2811 131.904 70.7417 133.101 70.7417C134.298 70.7417 135.449 70.2811 136.316 69.4555" stroke="#6561DE" stroke-width="1.5" stroke-linecap="round" stroke-linejoin="round"/>
</svg>
