<svg width="26" height="26" viewBox="0 0 26 26" fill="none" xmlns="http://www.w3.org/2000/svg">
<path d="M21.6667 0H4.33333C1.9401 0 0 1.9401 0 4.33333V21.6667C0 24.0599 1.9401 26 4.33333 26H21.6667C24.0599 26 26 24.0599 26 21.6667V4.33333C26 1.9401 24.0599 0 21.6667 0Z" fill="black"/>
<path fill-rule="evenodd" clip-rule="evenodd" d="M17.8041 16.838C17.8041 16.8073 17.9259 16.3112 17.5607 16.6033C17.4481 16.6964 17.2434 16.8518 17.2157 16.8732C16.7979 17.1979 12.3755 20.6321 11.9706 20.8964C11.8248 20.9894 11.8119 20.9617 7.12385 20.9663C5.10401 20.9663 4.9768 21.0741 5.00262 20.9039C5.00908 20.8518 7.36548 19.1043 9.27188 17.6305C9.51813 17.4444 18.566 10.5285 18.6546 10.4662C18.9449 10.2252 19.2958 10.0704 19.6683 10.0189C20.0408 9.96746 20.4201 10.0214 20.764 10.1748C21.1078 10.3281 21.4027 10.5748 21.6157 10.8874C21.8287 11.1999 21.9514 11.566 21.9702 11.9448C22.0302 14.0308 21.9822 18.2884 21.9757 18.8392C21.9728 19.2108 21.874 19.5753 21.6891 19.8967C21.5042 20.218 21.2395 20.4851 20.9211 20.6719C20.6027 20.8588 20.2416 20.959 19.8733 20.9623C19.505 20.9655 19.1421 20.8719 18.8205 20.6908C17.6068 19.9251 17.8041 18.8598 17.8041 16.838Z" fill="#FEFEFE"/>
<path fill-rule="evenodd" clip-rule="evenodd" d="M6.16977 15.8312C5.83206 15.6663 5.5439 15.4035 5.33761 15.0723C5.13131 14.7412 5.01506 14.3549 5.00194 13.9567C4.99758 13.7862 5.00194 7.48991 5.00194 7.08127C5.01346 6.71432 5.11307 6.35675 5.29105 6.04325C5.46902 5.72974 5.71935 5.47081 6.01784 5.2917C6.31632 5.11259 6.65281 5.01937 6.99474 5.0209C7.33666 5.02243 7.67242 5.11874 7.96951 5.30051C9.27086 6.13183 8.87463 7.54987 8.92526 9.30811C8.93049 9.49556 9.01952 9.42339 9.15481 9.30811C9.85305 8.72984 10.5391 8.18343 10.6595 8.08315C14.0635 5.34924 14.0416 5.32387 14.3384 5.08394C14.4693 4.9799 14.4911 5.02957 19.9488 5.01083C20.7779 5.01083 21.2266 4.94157 20.8844 5.15338C20.7029 5.26491 20.7099 5.27615 17.6062 7.81417C17.0502 8.26873 10.7625 13.4085 10.6578 13.491C8.40069 15.2755 7.6998 16.4554 6.16977 15.8312Z" fill="#FEFEFE"/>
</svg>
